<svg width="55" height="26" viewBox="0 0 55 26" fill="none" xmlns="http://www.w3.org/2000/svg">
<rect width="55" height="26" rx="4" fill="#DB4444"/>
<path d="M17.484 12.14V13.064H12.696V12.14H17.484ZM19.0894 15.068V14.24L23.3014 8.408H24.6094V14.12H25.8094V15.068H24.6094V17H23.5294V15.068H19.0894ZM23.5774 9.548L20.3494 14.12H23.5774V9.548ZM26.9003 12.572C26.9003 11.196 27.1243 10.124 27.5723 9.356C28.0203 8.58 28.8043 8.192 29.9243 8.192C31.0363 8.192 31.8163 8.58 32.2643 9.356C32.7122 10.124 32.9362 11.196 32.9362 12.572C32.9362 13.972 32.7122 15.06 32.2643 15.836C31.8163 16.612 31.0363 17 29.9243 17C28.8043 17 28.0203 16.612 27.5723 15.836C27.1243 15.06 26.9003 13.972 26.9003 12.572ZM31.8563 12.572C31.8563 11.876 31.8083 11.288 31.7123 10.808C31.6243 10.32 31.4363 9.928 31.1483 9.632C30.8683 9.336 30.4603 9.188 29.9243 9.188C29.3803 9.188 28.9643 9.336 28.6763 9.632C28.3963 9.928 28.2083 10.32 28.1123 10.808C28.0243 11.288 27.9803 11.876 27.9803 12.572C27.9803 13.292 28.0243 13.896 28.1123 14.384C28.2083 14.872 28.3963 15.264 28.6763 15.56C28.9643 15.856 29.3803 16.004 29.9243 16.004C30.4603 16.004 30.8683 15.856 31.1483 15.56C31.4363 15.264 31.6243 14.872 31.7123 14.384C31.8083 13.896 31.8563 13.292 31.8563 12.572ZM34.1954 10.28C34.1954 9.736 34.3594 9.304 34.6874 8.984C35.0154 8.656 35.4354 8.492 35.9474 8.492C36.4594 8.492 36.8794 8.656 37.2074 8.984C37.5354 9.304 37.6994 9.736 37.6994 10.28C37.6994 10.832 37.5354 11.272 37.2074 11.6C36.8794 11.92 36.4594 12.08 35.9474 12.08C35.4354 12.08 35.0154 11.92 34.6874 11.6C34.3594 11.272 34.1954 10.832 34.1954 10.28ZM41.2034 8.624L36.3434 17H35.2634L40.1234 8.624H41.2034ZM35.9474 9.164C35.6754 9.164 35.4594 9.26 35.2994 9.452C35.1474 9.636 35.0714 9.912 35.0714 10.28C35.0714 10.648 35.1474 10.928 35.2994 11.12C35.4594 11.312 35.6754 11.408 35.9474 11.408C36.2194 11.408 36.4354 11.312 36.5954 11.12C36.7554 10.92 36.8354 10.64 36.8354 10.28C36.8354 9.912 36.7554 9.636 36.5954 9.452C36.4354 9.26 36.2194 9.164 35.9474 9.164ZM38.7914 15.344C38.7914 14.792 38.9554 14.356 39.2834 14.036C39.6114 13.708 40.0314 13.544 40.5434 13.544C41.0554 13.544 41.4714 13.708 41.7914 14.036C42.1194 14.356 42.2834 14.792 42.2834 15.344C42.2834 15.888 42.1194 16.324 41.7914 16.652C41.4714 16.98 41.0554 17.144 40.5434 17.144C40.0314 17.144 39.6114 16.984 39.2834 16.664C38.9554 16.336 38.7914 15.896 38.7914 15.344ZM40.5314 14.228C40.2594 14.228 40.0434 14.324 39.8834 14.516C39.7234 14.7 39.6434 14.976 39.6434 15.344C39.6434 15.704 39.7234 15.98 39.8834 16.172C40.0434 16.356 40.2594 16.448 40.5314 16.448C40.8034 16.448 41.0194 16.356 41.1794 16.172C41.3394 15.98 41.4194 15.704 41.4194 15.344C41.4194 14.976 41.3394 14.7 41.1794 14.516C41.0194 14.324 40.8034 14.228 40.5314 14.228Z" fill="#FAFAFA"/>
</svg>
